<svg width="25" height="25" fill="none" xmlns="http://www.w3.org/2000/svg"><path fill-rule="evenodd" clip-rule="evenodd" d="M25 12.5C25 19.404 19.404 25 12.5 25S0 19.404 0 12.5 5.596 0 12.5 0 25 5.596 25 12.5zM8.228 15.171c-1.216 0-2.206.99-2.206 2.206a2.21 2.21 0 0 0 2.206 2.207c1.217 0 2.206-.99 2.206-2.207 0-1.216-.99-2.206-2.206-2.206zm0 2.835a.63.63 0 1 1 .002-1.259.63.63 0 0 1-.002 1.259zm9.734-3.899c.934 0 1.826.401 2.446 1.1a.37.37 0 0 1-.553.49 2.534 2.534 0 0 0-1.893-.85c-1.396 0-2.53 1.077-2.53 2.473 0 .252-.164.428-.49.408h-3.684a.35.35 0 0 1-.35-.35h-.012a2.671 2.671 0 0 0-2.668-2.668 2.671 2.671 0 0 0-2.669 2.668h-.692a.368.368 0 0 1-.365-.408 3.74 3.74 0 0 1 1.217-2.376v-1.279c0-.274.222-.495.495-.495h2.769a.795.795 0 0 1-.092-.119 1.699 1.699 0 0 1-.582-1.435L8.6 7.931a.984.984 0 0 1 1.066-.894l1.748.153a.984.984 0 0 1 .894 1.066l-.055.63-1.07-.852 1.277 1.717 2.28-.121a.66.66 0 0 1 .606.989h.588a.925.925 0 0 1 .847-.554h.443a.23.23 0 0 1 .231.23v1.386a.23.23 0 0 1-.23.23h-.444a.924.924 0 0 1-.847-.553h-.354l.128.4a3.981 3.981 0 0 1 2.14 2.352h.017a2.76 2.76 0 0 1 .096-.003zm-6.347 1.667c.178.375.295.784.34 1.214h.363a.788.788 0 0 1-.08-.354l.042-3.317-1.656-.141v1.32c.427.356.763.796.991 1.277zm2.798 1.215h.302a3.27 3.27 0 0 1 1.205-2.163l-1.038-3.223-.208-.649-2.496.133a.66.66 0 0 1-.564-.265l-1.489-2 .96 2.394a.871.871 0 0 0 .852.545l1.214.044a.792.792 0 0 1 .722.799l-.052 4.05a.788.788 0 0 1-.08.335h.672zm3.55-1.818a2.21 2.21 0 0 0-2.207 2.206 2.21 2.21 0 0 0 2.206 2.207 2.21 2.21 0 0 0 2.207-2.207 2.21 2.21 0 0 0-2.207-2.206zm0 2.835a.63.63 0 1 1 0-1.259.63.63 0 0 1 0 1.259zM12.364 4.957a1.456 1.456 0 1 1-2.913 0 1.456 1.456 0 0 1 2.913 0z" fill="#FC9908"/></svg>