<svg width="30" height="19" fill="none" xmlns="http://www.w3.org/2000/svg"><path d="M16.5 10.652h-.75V6.467c0-.21-.168-.38-.375-.38h-.637c-.222 0-.439.067-.623.192l-.72.486a.38.38 0 0 0-.159.39.4.4 0 0 0 .056.137l.416.633a.378.378 0 0 0 .239.162.37.37 0 0 0 .281-.056l.022-.015v2.636h-.75a.378.378 0 0 0-.375.38v.761c0 .21.168.38.375.38h3c.207 0 .375-.17.375-.38v-.76c0-.21-.168-.38-.375-.38zM28.5 0h-27C.672 0 0 .681 0 1.522v15.217c0 .84.672 1.522 1.5 1.522h27c.828 0 1.5-.682 1.5-1.522V1.522C30 .682 29.328 0 28.5 0zM2.25 15.978v-3.043c1.657 0 3 1.362 3 3.043h-3zm0-10.652V2.283h3c0 1.68-1.343 3.043-3 3.043zM15 14.456c-2.485 0-4.5-2.384-4.5-5.326 0-2.941 2.015-5.326 4.5-5.326s4.5 2.385 4.5 5.326c0 2.943-2.016 5.326-4.5 5.326zm12.75 1.522h-3c0-1.68 1.343-3.043 3-3.043v3.043zm0-10.652c-1.657 0-3-1.362-3-3.043h3v3.043z" fill="#FC9908"/></svg>