<svg width="100" height="44" fill="none" xmlns="http://www.w3.org/2000/svg"><path d="M12.424 25.211a.683.683 0 0 0-.515.217.725.725 0 0 0-.178.495v3.084c0 .136.03.332.178.495.157.172.36.217.515.217h5.583v2.064h-5.583a.692.692 0 0 0-.498.195.693.693 0 0 0-.195.497v3.066h-2.06V23.108h9.914v2.103h-7.161zm77.17-.833h.001c1.226 1.033 1.882 2.637 1.882 4.918 0 2.346-.663 3.979-1.897 5.01-.984.8-2.415 1.235-4.36 1.235h-5.294V23.012h5.294c1.88 0 3.32.472 4.374 1.366zm-2.52 8.89v.001l.01-.002c.539-.147 1.001-.39 1.358-.747.367-.367.612-.828.746-1.364.143-.53.209-1.153.209-1.86 0-1.458-.338-2.622-1.155-3.327h0l-.008-.007c-.72-.595-1.754-.847-3.014-.847h-2.56a.654.654 0 0 0-.47.185.654.654 0 0 0-.184.469v7.034c0 .129.032.317.184.47a.657.657 0 0 0 .47.184h2.56c.717 0 1.339-.06 1.854-.188zm-4.998-17.85v5.109h-2.08V8.017h2.054l3.078 6.386.037.076.06.06c.08.08.225.185.43.185a.576.576 0 0 0 .525-.315h0l.003-.007 3.078-6.385h2.074v12.51h-2.08v-5.128a.566.566 0 0 0-.166-.401.615.615 0 0 0-.274-.157.573.573 0 0 0-.65.243l-.02.03-.014.031-1.578 3.3h-1.778l-1.596-3.283h0l-.002-.005a.62.62 0 0 0-.233-.258.56.56 0 0 0-.469-.05h0a.576.576 0 0 0-.314.25.619.619 0 0 0-.085.32zM17.773 8.207h0l.003.002a5.46 5.46 0 0 1 1.73 1.165h0l.004.005c.49.479.877 1.047 1.16 1.708.28.655.422 1.353.422 2.097 0 .622-.105 1.226-.316 1.814a5.375 5.375 0 0 1-.917 1.586h0l-.003.005a5.194 5.194 0 0 1-2.252 1.62l-.468.176.177.468.553 1.462h-2.242l-.492-1.307a.655.655 0 0 0-.624-.446h-2.637a.645.645 0 0 0-.49.211.687.687 0 0 0-.164.462v1.08h-2.08V7.787H15.7c.744 0 1.432.14 2.072.42zm-.818 8.02h0l.009-.004a3.668 3.668 0 0 0 1.046-.692h0l.009-.009c.3-.301.535-.65.702-1.041.181-.41.272-.845.272-1.297 0-.447-.082-.872-.25-1.271a3.214 3.214 0 0 0-.705-1.068l-.354.354.354-.354a3.21 3.21 0 0 0-1.06-.702 3.04 3.04 0 0 0-1.277-.273h-3.83a.645.645 0 0 0-.49.212.686.686 0 0 0-.164.461v5.281c0 .128.032.316.184.469a.654.654 0 0 0 .47.185h3.811c.448 0 .874-.082 1.273-.251zm8.155 3.023l-.006.015-.006.016-.364 1.034h-2.207l4.492-12.51H30.3l4.492 12.51H32.58l-.376-1.027a.682.682 0 0 0-.23-.337.673.673 0 0 0-.417-.139h-5.814a.66.66 0 0 0-.408.14.747.747 0 0 0-.225.298zm3.122-8.393a.683.683 0 0 0-.23.34l-1.65 4.607a.683.683 0 0 0 .642.925h3.33c.141 0 .41-.033.58-.279.163-.235.111-.491.072-.619l-.004-.01-.003-.011-1.656-4.626-.005-.014-.006-.014a.696.696 0 0 0-.652-.438.674.674 0 0 0-.418.14zm11.373-3.051l4.612 6.833a.531.531 0 0 0 .466.278h.207l.147-.146a.577.577 0 0 0 .165-.412V7.806h2.08v12.51h-1.96l-4.674-7.232a.544.544 0 0 0-.226-.217.513.513 0 0 0-.53.038.518.518 0 0 0-.175.2.563.563 0 0 0-.058.252v6.958h-2.08V7.805h2.026zM60.26 9.152v.001c1.227 1.033 1.883 2.637 1.883 4.917 0 2.347-.663 3.98-1.897 5.01-.984.801-2.415 1.235-4.36 1.235h-5.294V7.787h5.294c1.88 0 3.32.472 4.374 1.365zm-2.52 8.892h0l.01-.003c.539-.146 1.001-.389 1.358-.746.367-.367.612-.829.746-1.364.143-.53.209-1.153.209-1.86 0-1.458-.338-2.622-1.155-3.328h0l-.008-.007c-.72-.594-1.754-.847-3.014-.847h-2.56a.654.654 0 0 0-.47.186.654.654 0 0 0-.184.469v7.034c0 .128.032.316.184.469a.658.658 0 0 0 .47.185h2.56c.717 0 1.339-.06 1.854-.188z" fill="#F2E7FE" stroke="#F2E7FE"/><path d="M96.907 42H3.343A1.348 1.348 0 0 1 2 40.656V3.345C2 2.605 2.604 2 3.343 2h93.564c.739 0 1.343.605 1.343 1.345v37.31c0 .74-.604 1.345-1.343 1.345z" stroke="#F2E7FE" stroke-width="3" stroke-miterlimit="10"/><path d="M59.918 34.55H24.552a1.348 1.348 0 0 1-1.343-1.345V25.36c0-.74.604-1.344 1.343-1.344h35.366c.739 0 1.343.605 1.343 1.344v7.844c0 .739-.605 1.344-1.343 1.344zm5.819-1.233V10.123c0-.74.605-1.344 1.344-1.344h7.834c.738 0 1.343.605 1.343 1.344v23.194c0 .74-.605 1.344-1.343 1.344H67.08a1.348 1.348 0 0 1-1.344-1.344z" stroke="#F2E7FE" stroke-width="3" stroke-miterlimit="10"/></svg>