<svg width="24" height="24" fill="none" xmlns="http://www.w3.org/2000/svg"><path d="M12 6a6 6 0 1 0 0 12 6 6 0 0 0 0-12zm0 9.897A3.898 3.898 0 1 1 12 8.1a3.898 3.898 0 0 1 0 7.796zM18.5 7a1.5 1.5 0 1 0 0-3 1.5 1.5 0 0 0 0 3z" fill="#fff"/><path d="M23.364 4.133A6.126 6.126 0 0 0 19.855.631a8.816 8.816 0 0 0-2.913-.56C15.658.017 15.252 0 11.997 0 8.743 0 8.326 0 7.053.072a8.74 8.74 0 0 0-2.91.559 6.132 6.132 0 0 0-3.51 3.502 8.75 8.75 0 0 0-.558 2.909C.017 8.322 0 8.728 0 11.979c0 3.25 0 3.663.075 4.937.02.995.208 1.977.558 2.91a6.134 6.134 0 0 0 3.51 3.502c.93.364 1.915.566 2.913.599C8.339 23.983 8.746 24 12 24c3.255 0 3.672 0 4.945-.073a8.827 8.827 0 0 0 2.913-.558 6.15 6.15 0 0 0 3.509-3.503c.35-.932.538-1.914.558-2.91.058-1.28.075-1.685.075-4.936 0-3.25 0-3.663-.075-4.937a8.746 8.746 0 0 0-.56-2.95zm-1.623 12.684a6.702 6.702 0 0 1-.415 2.246 3.972 3.972 0 0 1-2.281 2.277 6.653 6.653 0 0 1-2.226.414c-1.266.058-1.623.073-4.87.073-3.249 0-3.58 0-4.87-.073a6.621 6.621 0 0 1-2.225-.414 3.979 3.979 0 0 1-2.291-2.277 6.75 6.75 0 0 1-.415-2.22c-.057-1.265-.07-1.621-.07-4.863 0-3.243 0-3.574.07-4.864a6.695 6.695 0 0 1 .415-2.244 3.977 3.977 0 0 1 2.29-2.279 6.686 6.686 0 0 1 2.225-.413c1.268-.058 1.623-.074 4.871-.074s3.581 0 4.87.074c.76.009 1.513.149 2.226.413a3.987 3.987 0 0 1 2.281 2.279 6.75 6.75 0 0 1 .415 2.22c.057 1.266.072 1.621.072 4.864 0 3.242 0 3.59-.057 4.862h-.015v-.001z" fill="#fff"/></svg>