<svg width="25" height="25" fill="none" xmlns="http://www.w3.org/2000/svg"><path d="M18.395 14.535c-.291-.162-1.746-.929-2.017-1.033-.27-.11-.468-.161-.664.162-.198.32-.76 1.033-.938 1.249-.171.213-.345.24-.637.08-1.736-.934-2.874-1.667-4.018-3.78-.303-.563.303-.523.868-1.737.096-.214.048-.395-.027-.557-.075-.162-.664-1.725-.91-2.362-.24-.62-.486-.534-.665-.545C9.215 6 9.02 6 8.822 6c-.199 0-.517.08-.788.395C7.764 6.715 7 7.485 7 9.05c0 1.563 1.058 3.078 1.203 3.291.15.213 2.081 3.42 5.046 4.802 1.876.872 2.61.947 3.547.797.57-.093 1.747-.768 1.99-1.515.244-.744.244-1.381.172-1.514-.072-.141-.27-.222-.563-.375z" fill="#fff"/><path d="M24.029 7.656a12.505 12.505 0 0 0-2.687-3.998A12.399 12.399 0 0 0 17.344.97 12.44 12.44 0 0 0 12.5 0h-.056a12.47 12.47 0 0 0-8.83 3.694A12.387 12.387 0 0 0 .956 7.68 12.505 12.505 0 0 0 0 12.559a12.54 12.54 0 0 0 1.34 5.577v4.241c0 .709.574 1.284 1.283 1.284h4.244A12.538 12.538 0 0 0 12.444 25h.059a12.51 12.51 0 0 0 4.818-.957 12.401 12.401 0 0 0 3.985-2.656A12.47 12.47 0 0 0 25 12.557c.008-1.7-.321-3.35-.971-4.9zm-4.216 12.221A10.325 10.325 0 0 1 12.5 22.88h-.047a10.416 10.416 0 0 1-4.83-1.214l-.235-.126H3.46v-3.928l-.126-.235a10.416 10.416 0 0 1-1.213-4.83 10.315 10.315 0 0 1 3.002-7.36 10.301 10.301 0 0 1 7.332-3.066h.048c1.395 0 2.748.27 4.023.806a10.313 10.313 0 0 1 3.32 2.232 10.337 10.337 0 0 1 3.038 7.388 10.34 10.34 0 0 1-3.071 7.33z" fill="#fff"/></svg>