<svg width="284" height="124" fill="none" xmlns="http://www.w3.org/2000/svg"><path d="M34.675 72.5c-.366 0-.548.201-.548.604v8.778c0 .402.182.603.548.603h17.317v8.723H34.675c-.366 0-.548.183-.548.549v10.149h-8.713V63.667h31.071V72.5h-21.81zm220.603-4.883c3.909 3.292 5.864 8.321 5.864 15.087 0 6.95-1.973 12.07-5.919 15.362-3.142 2.56-7.58 3.84-13.316 3.84h-16.495V63.393h16.495c5.59 0 10.047 1.408 13.371 4.224zm-13.371 25.511c1.973 0 3.617-.164 4.932-.494 1.352-.365 2.429-.95 3.233-1.755.84-.841 1.425-1.92 1.754-3.237.365-1.353.548-3 .548-4.938 0-3.986-.932-6.784-2.795-8.393-1.681-1.39-4.238-2.085-7.672-2.085h-7.288c-.293 0-.439.146-.439.439v20.024c0 .293.146.44.439.44h7.288zm18.831-72.421v38.458h-8.768v-16.02c0-.11-.073-.183-.219-.22-.11-.036-.201 0-.274.11l-4.878 10.205h-6.85l-4.932-10.15c-.073-.146-.164-.2-.274-.164-.109.036-.164.128-.164.274v15.965h-8.768V20.707h8.165l9.152 18.982c.073.073.146.11.219.11.11 0 .183-.037.219-.11l9.152-18.982h8.22zM44.004 20.05c2.302 0 4.457.438 6.467 1.316a16.969 16.969 0 0 1 5.37 3.621c1.534 1.5 2.74 3.274 3.617 5.322.877 2.048 1.315 4.224 1.315 6.528 0 1.939-.329 3.822-.986 5.651a16.725 16.725 0 0 1-2.85 4.938c-1.863 2.304-4.201 3.986-7.014 5.047l2.301 6.09H42.8l-1.754-4.664c-.073-.22-.22-.329-.438-.329H33.1c-.292 0-.438.165-.438.494v4.498h-8.768V20.05h20.111zm-.055 24.742a7.787 7.787 0 0 0 3.07-.603 9.019 9.019 0 0 0 2.575-1.701 7.88 7.88 0 0 0 1.699-2.524c.438-.987.657-2.03.657-3.127a7.812 7.812 0 0 0-.603-3.072 7.73 7.73 0 0 0-1.698-2.579 7.718 7.718 0 0 0-2.576-1.7 7.227 7.227 0 0 0-3.069-.659H33.1c-.292 0-.438.165-.438.494v15.032c0 .293.146.44.438.44h10.85zm56.425 13.771h-9.316l-1.425-3.896c-.073-.256-.238-.384-.493-.384H72.59c-.22 0-.383.128-.493.384l-1.37 3.895H61.41l13.81-38.458h11.343l13.81 38.459zm-24.715-13.77a.478.478 0 0 0 .055.493.52.52 0 0 0 .438.22h9.48c.475 0 .64-.238.494-.714l-4.713-13.167c-.11-.256-.292-.384-.548-.384-.256 0-.42.128-.493.384l-4.713 13.167zm59.672-24.689v38.459h-7.782l-13.755-21.287c-.036-.073-.073-.091-.109-.055-.037 0-.055.037-.055.11v21.231h-8.768V20.105h7.946l13.59 20.135c.037.073.073.11.11.11.036-.037.055-.092.055-.165v-20.08h8.768zm36.44 4.17c3.909 3.292 5.863 8.32 5.863 15.087 0 6.95-1.972 12.07-5.918 15.361-3.142 2.56-7.581 3.84-13.316 3.84h-16.495V20.05H158.4c5.589 0 10.046 1.408 13.371 4.224zM158.4 49.784c1.972 0 3.616-.164 4.932-.493 1.351-.366 2.429-.951 3.233-1.756.84-.84 1.425-1.92 1.753-3.236.366-1.354.548-3 .548-4.938 0-3.987-.931-6.785-2.794-8.394-1.681-1.39-4.238-2.085-7.672-2.085h-7.289c-.292 0-.438.147-.438.44v20.024c0 .292.146.439.438.439h7.289z" fill="#FC9908"/><path d="M275.177 118.87H8.823A3.836 3.836 0 0 1 5 115.043V8.828A3.837 3.837 0 0 1 8.823 5h266.354A3.836 3.836 0 0 1 279 8.828v106.215a3.836 3.836 0 0 1-3.823 3.827z" stroke="#FC9908" stroke-width="10" stroke-miterlimit="10"/><path d="M169.878 97.66H69.198a3.837 3.837 0 0 1-3.822-3.828V71.504a3.837 3.837 0 0 1 3.823-3.828h100.679a3.836 3.836 0 0 1 3.823 3.828v22.328a3.836 3.836 0 0 1-3.823 3.827zm16.567-3.51V28.125a3.837 3.837 0 0 1 3.824-3.828h22.302a3.836 3.836 0 0 1 3.823 3.828V94.15a3.836 3.836 0 0 1-3.823 3.828h-22.302a3.837 3.837 0 0 1-3.824-3.828z" stroke="#FC9908" stroke-width="10" stroke-miterlimit="10"/></svg>