<svg width="25" height="25" viewBox="0 0 25 25" fill="none" xmlns="http://www.w3.org/2000/svg">
<path d="M13.75 11.25V5C13.75 4.66848 13.6183 4.35054 13.3839 4.11612C13.1495 3.8817 12.8315 3.75 12.5 3.75C12.1685 3.75 11.8505 3.8817 11.6161 4.11612C11.3817 4.35054 11.25 4.66848 11.25 5V12.5C11.25 12.8315 11.3817 13.1495 11.6161 13.3839C11.8505 13.6183 12.1685 13.75 12.5 13.75H18.75C19.0815 13.75 19.3995 13.6183 19.6339 13.3839C19.8683 13.1495 20 12.8315 20 12.5C20 12.1685 19.8683 11.8505 19.6339 11.6161C19.3995 11.3817 19.0815 11.25 18.75 11.25H13.75ZM12.5 25C5.59625 25 0 19.4037 0 12.5C0 5.59625 5.59625 0 12.5 0C19.4037 0 25 5.59625 25 12.5C25 19.4037 19.4037 25 12.5 25Z" fill="#FC9908"/>
</svg>
