<svg width="0" height="0" class="hidden">
  <symbol viewBox="0 0 16 16" xmlns="http://www.w3.org/2000/svg" id="location">
    <title></title>
    <path d="M3.02 6A6.124 6.124 0 0 1 3 5.5C3 2.462 5.239 0 8 0s5 2.462 5 5.5c0 .169-.007.335-.02.5H13c0 3.006-5 10-5 10S3 9.022 3 6zM8 7a2 2 0 1 0 0-4 2 2 0 0 0 0 4zm0 0" fill-rule="evenodd"></path>
  </symbol>
  <symbol viewBox="0 0 24 24" xmlns="http://www.w3.org/2000/svg" id="profile">
    <title></title>
    <circle cx="12" cy="8" r="4"></circle>
    <path d="M20 19v1a1 1 0 0 1-1 1H5a1 1 0 0 1-1-1v-1a6 6 0 0 1 6-6h4a6 6 0 0 1 6 6z"></path>
  </symbol>
  <symbol viewBox="0 0 24 24" xmlns="http://www.w3.org/2000/svg" id="basket">
    <title></title>
    <path d="M21.92 7.25v.13l-1.46 5.4A3 3 0 0 1 17.54 15H9.89a3 3 0 0 1-3-2.73l-.65-7.36a1 1 0 0 0-1-.91H3.07a1 1 0 0 1 0-2h2.17a3 3 0 0 1 3 2.73V5h11.69a2 2 0 0 1 2 2.25z" ></path>
    <circle cx="9.07" cy="19.5"  r="2.5"></circle>
    <circle cx="17.07" cy="19.5"  r="2.5"></circle>
  </symbol>
  <symbol viewBox="0 0 18 12" xmlns="http://www.w3.org/2000/svg" id="burger-menu">
    <title></title>
    <path d="M0 12h18v-2H0v2zm0-5h18V5H0v2zm0-7v2h18V0H0z" fill-rule="evenodd"></path>
  </symbol>
  <symbol viewBox="0 0 16 16" xmlns="http://www.w3.org/2000/svg" id="_search">
    <path d="M15.7 14.3l-3.105-3.105A6.966 6.966 0 0 0 14 7a7 7 0 1 0-7 7 6.96 6.96 0 0 0 4.194-1.405L14.3 15.7c.184.184.38.3.7.3a1 1 0 0 0 1-1 .926.926 0 0 0-.3-.7zM2 7c0-2.762 2.238-5 5-5s5 2.238 5 5-2.238 5-5 5-5-2.238-5-5z"></path>
  </symbol>
  <symbol viewBox="0 0 25 25" fill="none" xmlns="http://www.w3.org/2000/svg" id="clock">
    <path d="M13.75 11.25V5a1.25 1.25 0 0 0-2.5 0v7.5a1.25 1.25 0 0 0 1.25 1.25h6.25a1.25 1.25 0 0 0 0-2.5h-5zM12.5 25C5.596 25 0 19.404 0 12.5S5.596 0 12.5 0 25 5.596 25 12.5 19.404 25 12.5 25z" fill="#FC9908"></path>
  </symbol>
  <symbol viewBox="0 0 30 19" fill="none" xmlns="http://www.w3.org/2000/svg" id="money">
    <path d="M16.5 10.652h-.75V6.467c0-.21-.168-.38-.375-.38h-.637c-.222 0-.439.067-.623.192l-.72.486a.38.38 0 0 0-.159.39.4.4 0 0 0 .056.137l.416.633a.378.378 0 0 0 .239.162.37.37 0 0 0 .281-.056l.022-.015v2.636h-.75a.378.378 0 0 0-.375.38v.761c0 .21.168.38.375.38h3c.207 0 .375-.17.375-.38v-.76c0-.21-.168-.38-.375-.38zM28.5 0h-27C.672 0 0 .681 0 1.522v15.217c0 .84.672 1.522 1.5 1.522h27c.828 0 1.5-.682 1.5-1.522V1.522C30 .682 29.328 0 28.5 0zM2.25 15.978v-3.043c1.657 0 3 1.362 3 3.043h-3zm0-10.652V2.283h3c0 1.68-1.343 3.043-3 3.043zM15 14.456c-2.485 0-4.5-2.384-4.5-5.326 0-2.941 2.015-5.326 4.5-5.326s4.5 2.385 4.5 5.326c0 2.943-2.016 5.326-4.5 5.326zm12.75 1.522h-3c0-1.68 1.343-3.043 3-3.043v3.043zm0-10.652c-1.657 0-3-1.362-3-3.043h3v3.043z"
    fill="#FC9908"></path>
  </symbol>
  <symbol viewBox="0 0 25 25" fill="none" xmlns="http://www.w3.org/2000/svg" id="bike">
    <path fill-rule="evenodd" clip-rule="evenodd" d="M25 12.5C25 19.404 19.404 25 12.5 25S0 19.404 0 12.5 5.596 0 12.5 0 25 5.596 25 12.5zM8.228 15.171c-1.216 0-2.206.99-2.206 2.206a2.21 2.21 0 0 0 2.206 2.207c1.217 0 2.206-.99 2.206-2.207 0-1.216-.99-2.206-2.206-2.206zm0 2.835a.63.63 0 1 1 .002-1.259.63.63 0 0 1-.002 1.259zm9.734-3.899c.934 0 1.826.401 2.446 1.1a.37.37 0 0 1-.553.49 2.534 2.534 0 0 0-1.893-.85c-1.396 0-2.53 1.077-2.53 2.473 0 .252-.164.428-.49.408h-3.684a.35.35 0 0 1-.35-.35h-.012a2.671 2.671 0 0 0-2.668-2.668 2.671 2.671 0 0 0-2.669 2.668h-.692a.368.368 0 0 1-.365-.408 3.74 3.74 0 0 1 1.217-2.376v-1.279c0-.274.222-.495.495-.495h2.769a.795.795 0 0 1-.092-.119 1.699 1.699 0 0 1-.582-1.435L8.6 7.931a.984.984 0 0 1 1.066-.894l1.748.153a.984.984 0 0 1 .894 1.066l-.055.63-1.07-.852 1.277 1.717 2.28-.121a.66.66 0 0 1 .606.989h.588a.925.925 0 0 1 .847-.554h.443a.23.23 0 0 1 .231.23v1.386a.23.23 0 0 1-.23.23h-.444a.924.924 0 0 1-.847-.553h-.354l.128.4a3.981 3.981 0 0 1 2.14 2.352h.017a2.76 2.76 0 0 1 .096-.003zm-6.347 1.667c.178.375.295.784.34 1.214h.363a.788.788 0 0 1-.08-.354l.042-3.317-1.656-.141v1.32c.427.356.763.796.991 1.277zm2.798 1.215h.302a3.27 3.27 0 0 1 1.205-2.163l-1.038-3.223-.208-.649-2.496.133a.66.66 0 0 1-.564-.265l-1.489-2 .96 2.394a.871.871 0 0 0 .852.545l1.214.044a.792.792 0 0 1 .722.799l-.052 4.05a.788.788 0 0 1-.08.335h.672zm3.55-1.818a2.21 2.21 0 0 0-2.207 2.206 2.21 2.21 0 0 0 2.206 2.207 2.21 2.21 0 0 0 2.207-2.207 2.21 2.21 0 0 0-2.207-2.206zm0 2.835a.63.63 0 1 1 0-1.259.63.63 0 0 1 0 1.259zM12.364 4.957a1.456 1.456 0 1 1-2.913 0 1.456 1.456 0 0 1 2.913 0z"
    fill="#FC9908"></path>
  </symbol>
  <symbol viewBox="0 0 25 25" fill="none" xmlns="http://www.w3.org/2000/svg" id="footer-call">
    <path d="M18.395 14.535c-.291-.162-1.746-.929-2.017-1.033-.27-.11-.468-.161-.664.162-.198.32-.76 1.033-.938 1.249-.171.213-.345.24-.637.08-1.736-.934-2.874-1.667-4.018-3.78-.303-.563.303-.523.868-1.737.096-.214.048-.395-.027-.557-.075-.162-.664-1.725-.91-2.362-.24-.62-.486-.534-.665-.545C9.215 6 9.02 6 8.822 6c-.199 0-.517.08-.788.395C7.764 6.715 7 7.485 7 9.05c0 1.563 1.058 3.078 1.203 3.291.15.213 2.081 3.42 5.046 4.802 1.876.872 2.61.947 3.547.797.57-.093 1.747-.768 1.99-1.515.244-.744.244-1.381.172-1.514-.072-.141-.27-.222-.563-.375z"
    fill="#fff"></path>
    <path d="M24.029 7.656a12.505 12.505 0 0 0-2.687-3.998A12.399 12.399 0 0 0 17.344.97 12.44 12.44 0 0 0 12.5 0h-.056a12.47 12.47 0 0 0-8.83 3.694A12.387 12.387 0 0 0 .956 7.68 12.505 12.505 0 0 0 0 12.559a12.54 12.54 0 0 0 1.34 5.577v4.241c0 .709.574 1.284 1.283 1.284h4.244A12.538 12.538 0 0 0 12.444 25h.059a12.51 12.51 0 0 0 4.818-.957 12.401 12.401 0 0 0 3.985-2.656A12.47 12.47 0 0 0 25 12.557c.008-1.7-.321-3.35-.971-4.9zm-4.216 12.221A10.325 10.325 0 0 1 12.5 22.88h-.047a10.416 10.416 0 0 1-4.83-1.214l-.235-.126H3.46v-3.928l-.126-.235a10.416 10.416 0 0 1-1.213-4.83 10.315 10.315 0 0 1 3.002-7.36 10.301 10.301 0 0 1 7.332-3.066h.048c1.395 0 2.748.27 4.023.806a10.313 10.313 0 0 1 3.32 2.232 10.337 10.337 0 0 1 3.038 7.388 10.34 10.34 0 0 1-3.071 7.33z"
    fill="#fff"></path>
  </symbol>
  <symbol viewBox="0 0 30 24" fill="none" xmlns="http://www.w3.org/2000/svg" id="footer-message">
    <path d="M25.969 1H3.656A2.656 2.656 0 0 0 1 3.656v15.938a2.656 2.656 0 0 0 2.656 2.656H25.97a2.656 2.656 0 0 0 2.656-2.656V3.656A2.656 2.656 0 0 0 25.969 1z" stroke="#fff" stroke-width="2" stroke-linecap="round" stroke-linejoin="round"></path>
    <path d="M5 4.625l9.563 7.438 9.562-7.438" stroke="#fff" stroke-width="2" stroke-linecap="round" stroke-linejoin="round"></path>
  </symbol>
  <symbol viewBox="0 0 24 24" fill="none" xmlns="http://www.w3.org/2000/svg" id="footer-insta">
    <path d="M12 6a6 6 0 1 0 0 12 6 6 0 0 0 0-12zm0 9.897A3.898 3.898 0 1 1 12 8.1a3.898 3.898 0 0 1 0 7.796zM18.5 7a1.5 1.5 0 1 0 0-3 1.5 1.5 0 0 0 0 3z" fill="#fff"></path>
    <path d="M23.364 4.133A6.126 6.126 0 0 0 19.855.631a8.816 8.816 0 0 0-2.913-.56C15.658.017 15.252 0 11.997 0 8.743 0 8.326 0 7.053.072a8.74 8.74 0 0 0-2.91.559 6.132 6.132 0 0 0-3.51 3.502 8.75 8.75 0 0 0-.558 2.909C.017 8.322 0 8.728 0 11.979c0 3.25 0 3.663.075 4.937.02.995.208 1.977.558 2.91a6.134 6.134 0 0 0 3.51 3.502c.93.364 1.915.566 2.913.599C8.339 23.983 8.746 24 12 24c3.255 0 3.672 0 4.945-.073a8.827 8.827 0 0 0 2.913-.558 6.15 6.15 0 0 0 3.509-3.503c.35-.932.538-1.914.558-2.91.058-1.28.075-1.685.075-4.936 0-3.25 0-3.663-.075-4.937a8.746 8.746 0 0 0-.56-2.95zm-1.623 12.684a6.702 6.702 0 0 1-.415 2.246 3.972 3.972 0 0 1-2.281 2.277 6.653 6.653 0 0 1-2.226.414c-1.266.058-1.623.073-4.87.073-3.249 0-3.58 0-4.87-.073a6.621 6.621 0 0 1-2.225-.414 3.979 3.979 0 0 1-2.291-2.277 6.75 6.75 0 0 1-.415-2.22c-.057-1.265-.07-1.621-.07-4.863 0-3.243 0-3.574.07-4.864a6.695 6.695 0 0 1 .415-2.244 3.977 3.977 0 0 1 2.29-2.279 6.686 6.686 0 0 1 2.225-.413c1.268-.058 1.623-.074 4.871-.074s3.581 0 4.87.074c.76.009 1.513.149 2.226.413a3.987 3.987 0 0 1 2.281 2.279 6.75 6.75 0 0 1 .415 2.22c.057 1.266.072 1.621.072 4.864 0 3.242 0 3.59-.057 4.862h-.015v-.001z"
    fill="#fff"></path>
  </symbol>
   <symbol viewBox="0 0 100 44" fill="none" xmlns="http://www.w3.org/2000/svg" id="desktop-logo">
    <path d="M12.424 25.211a.683.683 0 0 0-.515.217.725.725 0 0 0-.178.495v3.084c0 .136.03.332.178.495.157.172.36.217.515.217h5.583v2.064h-5.583a.692.692 0 0 0-.498.195.693.693 0 0 0-.195.497v3.066h-2.06V23.108h9.914v2.103h-7.161zm77.17-.833h.001c1.226 1.033 1.882 2.637 1.882 4.918 0 2.346-.663 3.979-1.897 5.01-.984.8-2.415 1.235-4.36 1.235h-5.294V23.012h5.294c1.88 0 3.32.472 4.374 1.366zm-2.52 8.89v.001l.01-.002c.539-.147 1.001-.39 1.358-.747.367-.367.612-.828.746-1.364.143-.53.209-1.153.209-1.86 0-1.458-.338-2.622-1.155-3.327l-.008-.007c-.72-.595-1.754-.847-3.014-.847h-2.56a.654.654 0 0 0-.47.185.654.654 0 0 0-.184.469v7.034c0 .129.032.317.184.47a.657.657 0 0 0 .47.184h2.56c.717 0 1.339-.06 1.854-.188zm-4.998-17.85v5.109h-2.08V8.017h2.054l3.078 6.386.037.076.06.06c.08.08.225.185.43.185a.576.576 0 0 0 .525-.315l.003-.007 3.078-6.385h2.074v12.51h-2.08v-5.128a.566.566 0 0 0-.166-.401.615.615 0 0 0-.274-.157.573.573 0 0 0-.65.243l-.02.03-.014.031-1.578 3.3h-1.778l-1.596-3.283-.002-.005a.62.62 0 0 0-.233-.258.576.576 0 0 0-.783.2.619.619 0 0 0-.085.32zM17.773 8.207l.003.002a5.46 5.46 0 0 1 1.73 1.165l.004.005c.49.479.877 1.047 1.16 1.708.28.655.422 1.353.422 2.097 0 .622-.105 1.226-.316 1.814a5.375 5.375 0 0 1-.917 1.586l-.003.005a5.194 5.194 0 0 1-2.252 1.62l-.468.176.177.468.553 1.462h-2.242l-.492-1.307a.655.655 0 0 0-.624-.446h-2.637a.645.645 0 0 0-.49.211.687.687 0 0 0-.164.462v1.08h-2.08V7.787H15.7c.744 0 1.432.14 2.072.42zm-.818 8.02l.009-.004a3.668 3.668 0 0 0 1.046-.692l.009-.009c.3-.301.535-.65.702-1.041.181-.41.272-.845.272-1.297 0-.447-.082-.872-.25-1.271a3.214 3.214 0 0 0-.705-1.068l-.354.354.354-.354a3.21 3.21 0 0 0-1.06-.702 3.04 3.04 0 0 0-1.277-.273h-3.83a.645.645 0 0 0-.49.212.686.686 0 0 0-.164.461v5.281c0 .128.032.316.184.469a.654.654 0 0 0 .47.185h3.811c.448 0 .874-.082 1.273-.251zm8.155 3.023l-.006.015-.006.016-.364 1.034h-2.207l4.492-12.51H30.3l4.492 12.51H32.58l-.376-1.027a.682.682 0 0 0-.23-.337.673.673 0 0 0-.417-.139h-5.814a.66.66 0 0 0-.408.14.747.747 0 0 0-.225.298zm3.122-8.393a.683.683 0 0 0-.23.34l-1.65 4.607a.683.683 0 0 0 .642.925h3.33c.141 0 .41-.033.58-.279.163-.235.111-.491.072-.619l-.004-.01-.003-.011-1.656-4.626-.005-.014-.006-.014a.696.696 0 0 0-.652-.438.674.674 0 0 0-.418.14zm11.373-3.051l4.612 6.833a.531.531 0 0 0 .466.278h.207l.147-.146a.577.577 0 0 0 .165-.412V7.806h2.08v12.51h-1.96l-4.674-7.232a.544.544 0 0 0-.226-.217.513.513 0 0 0-.53.038.518.518 0 0 0-.175.2.563.563 0 0 0-.058.252v6.958h-2.08V7.805h2.026zM60.26 9.152v.001c1.227 1.033 1.883 2.637 1.883 4.917 0 2.347-.663 3.98-1.897 5.01-.984.801-2.415 1.235-4.36 1.235h-5.294V7.787h5.294c1.88 0 3.32.472 4.374 1.365zm-2.52 8.892l.01-.003c.539-.146 1.001-.389 1.358-.746.367-.367.612-.829.746-1.364.143-.53.209-1.153.209-1.86 0-1.458-.338-2.622-1.155-3.328l-.008-.007c-.72-.594-1.754-.847-3.014-.847h-2.56a.654.654 0 0 0-.47.186.654.654 0 0 0-.184.469v7.034c0 .128.032.316.184.469a.658.658 0 0 0 .47.185h2.56c.717 0 1.339-.06 1.854-.188z"
      fill="#F2E7FE" stroke="#F2E7FE"></path>
    <path d="M96.907 42H3.343A1.348 1.348 0 0 1 2 40.656V3.345C2 2.605 2.604 2 3.343 2h93.564c.739 0 1.343.605 1.343 1.345v37.31c0 .74-.604 1.345-1.343 1.345z" stroke="#F2E7FE" stroke-width="3" stroke-miterlimit="10"></path>
    <path d="M59.918 34.55H24.552a1.348 1.348 0 0 1-1.343-1.345V25.36c0-.74.604-1.344 1.343-1.344h35.366c.739 0 1.343.605 1.343 1.344v7.844c0 .739-.605 1.344-1.343 1.344zm5.819-1.233V10.123c0-.74.605-1.344 1.344-1.344h7.834c.738 0 1.343.605 1.343 1.344v23.194c0 .74-.605 1.344-1.343 1.344H67.08a1.348 1.348 0 0 1-1.344-1.344z"
      stroke="#F2E7FE" stroke-width="3" stroke-miterlimit="10"></path>
  </symbol>
  <symbol viewBox="0 0 30 30" fill="none" xmlns="http://www.w3.org/2000/svg" id="popup-close">
    <path fill-rule="evenodd" clip-rule="evenodd" d="M15 1.667C7.633 1.667 1.667 7.633 1.667 15S7.633 28.333 15 28.333 28.333 22.367 28.333 15 22.367 1.667 15 1.667z" fill="#000" fill-opacity=".54"></path>
    <path fill-rule="evenodd" clip-rule="evenodd" d="M21.667 19.783l-1.884 1.884L15 16.883l-4.783 4.784-1.884-1.884L13.117 15l-4.784-4.783 1.884-1.884L15 13.117l4.783-4.784 1.884 1.884L16.883 15l4.784 4.783z" fill="#F2E7FE"></path>
  </symbol>
</svg>



